<svg fill="none" xmlns="http://www.w3.org/2000/svg">
<symbol id="logo" viewBox="0 0 133 16">
<path d="M2.24 14.8H0V0.5H2.44L10.56 12.54H9.78V0.5H12.02V14.8H9.58L1.44 2.76H2.24V14.8Z" fill="#2E4F21"/>
<path d="M18.8995 15.12C17.8462 15.12 16.9062 14.8933 16.0795 14.44C15.2662 13.9867 14.6262 13.36 14.1595 12.56C13.6929 11.76 13.4595 10.84 13.4595 9.8C13.4595 8.77333 13.6929 7.86 14.1595 7.06C14.6262 6.26 15.2662 5.63333 16.0795 5.18C16.9062 4.72667 17.8462 4.5 18.8995 4.5C19.9662 4.5 20.9062 4.72667 21.7195 5.18C22.5462 5.63333 23.1862 6.26 23.6395 7.06C24.1062 7.86 24.3395 8.77333 24.3395 9.8C24.3395 10.84 24.1062 11.76 23.6395 12.56C23.1862 13.36 22.5462 13.9867 21.7195 14.44C20.9062 14.8933 19.9662 15.12 18.8995 15.12ZM18.8995 13.24C19.5262 13.24 20.0729 13.0933 20.5395 12.8C21.0062 12.5067 21.3662 12.1067 21.6195 11.6C21.8862 11.08 22.0195 10.48 22.0195 9.8C22.0195 9.13333 21.8862 8.54667 21.6195 8.04C21.3662 7.52 21.0062 7.11333 20.5395 6.82C20.0729 6.52667 19.5262 6.38 18.8995 6.38C18.2862 6.38 17.7462 6.52667 17.2795 6.82C16.8129 7.11333 16.4462 7.52 16.1795 8.04C15.9262 8.54667 15.7995 9.13333 15.7995 9.8C15.7995 10.48 15.9262 11.08 16.1795 11.6C16.4462 12.1067 16.8129 12.5067 17.2795 12.8C17.7462 13.0933 18.2862 13.24 18.8995 13.24Z" fill="#2E4F21"/>
<path d="M27.7381 14.8H25.5181V0.4H27.7581V7.9H27.2181C27.3248 7.23333 27.5648 6.64667 27.9381 6.14C28.3115 5.63333 28.7915 5.23333 29.3781 4.94C29.9648 4.64667 30.6248 4.5 31.3581 4.5C32.2915 4.5 33.1315 4.72667 33.8781 5.18C34.6381 5.63333 35.2381 6.26 35.6781 7.06C36.1181 7.86 36.3381 8.77333 36.3381 9.8C36.3381 10.84 36.1115 11.76 35.6581 12.56C35.2181 13.36 34.6181 13.9867 33.8581 14.44C33.0981 14.8933 32.2381 15.12 31.2781 15.12C30.3981 15.12 29.6381 14.94 28.9981 14.58C28.3581 14.2067 27.8715 13.7067 27.5381 13.08C27.2181 12.44 27.0848 11.7267 27.1381 10.94L27.5981 10.58C27.6648 11.1 27.8448 11.56 28.1381 11.96C28.4315 12.36 28.8115 12.6733 29.2781 12.9C29.7448 13.1267 30.2515 13.24 30.7981 13.24C31.4515 13.24 32.0115 13.0933 32.4781 12.8C32.9581 12.5067 33.3315 12.1 33.5981 11.58C33.8648 11.06 33.9981 10.4667 33.9981 9.8C33.9981 9.14667 33.8715 8.56 33.6181 8.04C33.3648 7.52 33.0048 7.11333 32.5381 6.82C32.0848 6.52667 31.5515 6.38 30.9381 6.38C30.3248 6.38 29.7781 6.53333 29.2981 6.84C28.8181 7.13333 28.4381 7.54667 28.1581 8.08C27.8915 8.61333 27.7581 9.24 27.7581 9.96V12.22L27.7381 12.32V14.8Z" fill="#2E4F21"/>
<path d="M39.7487 14.8H37.5088V0.4H39.7487V14.8Z" fill="#2E4F21"/>
<path d="M49.9148 11.78L51.1948 13.18C50.6748 13.78 50.0282 14.2533 49.2548 14.6C48.4815 14.9467 47.6215 15.12 46.6748 15.12C45.5548 15.12 44.5615 14.8933 43.6948 14.44C42.8415 13.9867 42.1682 13.36 41.6748 12.56C41.1948 11.76 40.9548 10.8467 40.9548 9.82C40.9548 8.78 41.1882 7.86 41.6548 7.06C42.1215 6.26 42.7615 5.63333 43.5748 5.18C44.3882 4.72667 45.3015 4.5 46.3148 4.5C47.3015 4.5 48.1748 4.72667 48.9348 5.18C49.6948 5.62 50.2948 6.23333 50.7348 7.02C51.1748 7.79333 51.3948 8.69333 51.3948 9.72V9.84H49.1748V9.62C49.1748 8.95333 49.0482 8.37333 48.7948 7.88C48.5548 7.37333 48.2215 6.98667 47.7948 6.72C47.3682 6.44 46.8682 6.3 46.2948 6.3C45.6948 6.3 45.1615 6.44667 44.6948 6.74C44.2415 7.02 43.8882 7.42 43.6348 7.94C43.3815 8.44667 43.2548 9.06 43.2548 9.78C43.2548 10.5 43.4015 11.1267 43.6948 11.66C44.0015 12.1933 44.4148 12.6067 44.9348 12.9C45.4682 13.18 46.0815 13.32 46.7748 13.32C48.0415 13.32 49.0882 12.8067 49.9148 11.78ZM51.3948 10.52H42.5148V9H51.0748L51.3948 9.74V10.52Z" fill="#2E4F21"/>
<path d="M58.1895 14.8H55.8895V0.5H65.3295V2.46H58.1895V14.8ZM64.9495 8.52H57.9895V6.56H64.9495V8.52Z" fill="#2E4F21"/>
<path d="M68.6878 14.8H66.4478V4.82H68.6878V14.8ZM67.5678 2.76C67.1811 2.76 66.8478 2.62667 66.5678 2.36C66.2878 2.09333 66.1478 1.77333 66.1478 1.4C66.1478 0.999999 66.2878 0.666666 66.5678 0.4C66.8478 0.133333 67.1811 0 67.5678 0C67.9678 0 68.3011 0.133333 68.5678 0.4C68.8478 0.666666 68.9878 0.993333 68.9878 1.38C68.9878 1.76667 68.8478 2.09333 68.5678 2.36C68.3011 2.62667 67.9678 2.76 67.5678 2.76Z" fill="#2E4F21"/>
<path d="M79.8339 14.8H77.5939V9.04C77.5939 8.14667 77.3939 7.48 76.9939 7.04C76.5939 6.6 76.0539 6.38 75.3739 6.38C74.8806 6.38 74.4139 6.50667 73.9739 6.76C73.5472 7.01333 73.2006 7.41333 72.9339 7.96C72.6672 8.50667 72.5339 9.21333 72.5339 10.08V14.8H70.2939V4.82H72.5139V7.9H72.2139C72.3472 7.02 72.6072 6.34 72.9939 5.86C73.3806 5.36667 73.8339 5.02 74.3539 4.82C74.8739 4.60667 75.4072 4.5 75.9539 4.5C77.1539 4.5 78.1006 4.86667 78.7939 5.6C79.4872 6.33333 79.8339 7.4 79.8339 8.8V14.8Z" fill="#2E4F21"/>
<path d="M90.2684 14.8H88.2084V12.82L88.1084 12.4V8.66C88.1084 7.91333 87.8684 7.33333 87.3884 6.92C86.9084 6.49333 86.2551 6.28 85.4284 6.28C84.8284 6.28 84.2684 6.4 83.7484 6.64C83.2418 6.88 82.8018 7.21333 82.4284 7.64L81.1484 6.24C81.6951 5.69333 82.3351 5.26667 83.0684 4.96C83.8018 4.65333 84.6151 4.5 85.5084 4.5C86.4551 4.5 87.2818 4.66667 87.9884 5C88.7084 5.32 89.2684 5.78667 89.6684 6.4C90.0684 7.01333 90.2684 7.74667 90.2684 8.6V14.8ZM84.6684 15.12C83.9084 15.12 83.2351 14.98 82.6484 14.7C82.0618 14.42 81.6084 14.04 81.2884 13.56C80.9684 13.08 80.8084 12.52 80.8084 11.88C80.8084 11.1867 81.0084 10.6 81.4084 10.12C81.8084 9.62667 82.3618 9.25333 83.0684 9C83.7884 8.73333 84.6151 8.6 85.5484 8.6H88.3484V10.14H85.7484C84.9618 10.14 84.3218 10.28 83.8284 10.56C83.3484 10.84 83.1084 11.2533 83.1084 11.8C83.1084 12.2933 83.2951 12.6867 83.6684 12.98C84.0418 13.26 84.5284 13.4 85.1284 13.4C85.7018 13.4 86.2284 13.28 86.7084 13.04C87.1884 12.8 87.5684 12.4733 87.8484 12.06C88.1418 11.6333 88.3084 11.1467 88.3484 10.6L89.0684 10.94C89.0684 11.7533 88.8818 12.48 88.5084 13.12C88.1351 13.7467 87.6151 14.24 86.9484 14.6C86.2818 14.9467 85.5218 15.12 84.6684 15.12Z" fill="#2E4F21"/>
<path d="M101.257 14.8H99.0166V9.04C99.0166 8.14667 98.8166 7.48 98.4166 7.04C98.0166 6.6 97.4766 6.38 96.7966 6.38C96.3032 6.38 95.8366 6.50667 95.3966 6.76C94.9699 7.01333 94.6232 7.41333 94.3566 7.96C94.0899 8.50667 93.9566 9.21333 93.9566 10.08V14.8H91.7166V4.82H93.9366V7.9H93.6366C93.7699 7.02 94.0299 6.34 94.4166 5.86C94.8032 5.36667 95.2566 5.02 95.7766 4.82C96.2966 4.60667 96.8299 4.5 97.3766 4.5C98.5766 4.5 99.5232 4.86667 100.217 5.6C100.91 6.33333 101.257 7.4 101.257 8.8V14.8Z" fill="#2E4F21"/>
<path d="M110.531 11.74L111.971 13.14C111.478 13.7533 110.871 14.24 110.151 14.6C109.431 14.9467 108.604 15.12 107.671 15.12C106.644 15.12 105.724 14.8933 104.911 14.44C104.111 13.9733 103.478 13.3467 103.011 12.56C102.544 11.76 102.311 10.84 102.311 9.8C102.311 8.77333 102.544 7.86667 103.011 7.08C103.478 6.28 104.118 5.65333 104.931 5.2C105.758 4.73333 106.691 4.5 107.731 4.5C108.638 4.5 109.444 4.67333 110.151 5.02C110.871 5.36667 111.478 5.85333 111.971 6.48L110.531 7.88C110.238 7.42667 109.864 7.06667 109.411 6.8C108.971 6.52 108.438 6.38 107.811 6.38C107.198 6.38 106.651 6.52667 106.171 6.82C105.691 7.11333 105.318 7.52 105.051 8.04C104.784 8.54667 104.651 9.13333 104.651 9.8C104.651 10.4667 104.784 11.06 105.051 11.58C105.318 12.1 105.691 12.5067 106.171 12.8C106.651 13.0933 107.198 13.24 107.811 13.24C108.438 13.24 108.971 13.1 109.411 12.82C109.864 12.54 110.238 12.18 110.531 11.74Z" fill="#2E4F21"/>
<path d="M121.152 11.78L122.432 13.18C121.912 13.78 121.266 14.2533 120.492 14.6C119.719 14.9467 118.859 15.12 117.912 15.12C116.792 15.12 115.799 14.8933 114.932 14.44C114.079 13.9867 113.406 13.36 112.912 12.56C112.432 11.76 112.192 10.8467 112.192 9.82C112.192 8.78 112.426 7.86 112.892 7.06C113.359 6.26 113.999 5.63333 114.812 5.18C115.626 4.72667 116.539 4.5 117.552 4.5C118.539 4.5 119.412 4.72667 120.172 5.18C120.932 5.62 121.532 6.23333 121.972 7.02C122.412 7.79333 122.632 8.69333 122.632 9.72V9.84H120.412V9.62C120.412 8.95333 120.286 8.37333 120.032 7.88C119.792 7.37333 119.459 6.98667 119.032 6.72C118.606 6.44 118.106 6.3 117.532 6.3C116.932 6.3 116.399 6.44667 115.932 6.74C115.479 7.02 115.126 7.42 114.872 7.94C114.619 8.44667 114.492 9.06 114.492 9.78C114.492 10.5 114.639 11.1267 114.932 11.66C115.239 12.1933 115.652 12.6067 116.172 12.9C116.706 13.18 117.319 13.32 118.012 13.32C119.279 13.32 120.326 12.8067 121.152 11.78ZM122.632 10.52H113.752V9H122.312L122.632 9.74V10.52Z" fill="#2E4F21"/>
<path d="M122.945 13.28L124.245 11.88C124.698 12.3467 125.231 12.7133 125.845 12.98C126.471 13.2467 127.125 13.38 127.805 13.38C128.498 13.38 129.051 13.2533 129.465 13C129.878 12.7333 130.085 12.3933 130.085 11.98C130.085 11.6067 129.898 11.32 129.525 11.12C129.165 10.9067 128.518 10.74 127.585 10.62C126.118 10.4067 125.051 10.0733 124.385 9.62C123.731 9.15333 123.405 8.51333 123.405 7.7C123.405 7.06 123.591 6.5 123.965 6.02C124.338 5.54 124.845 5.16667 125.485 4.9C126.125 4.63333 126.858 4.5 127.685 4.5C128.645 4.5 129.491 4.66 130.225 4.98C130.971 5.3 131.618 5.73333 132.165 6.28L130.865 7.7C130.451 7.24667 129.978 6.88667 129.445 6.62C128.911 6.35333 128.331 6.22 127.705 6.22C127.078 6.22 126.571 6.34667 126.185 6.6C125.798 6.84 125.605 7.15333 125.605 7.54C125.605 7.86 125.778 8.10667 126.125 8.28C126.485 8.44 127.111 8.58 128.005 8.7C129.471 8.91333 130.551 9.26667 131.245 9.76C131.938 10.24 132.285 10.9333 132.285 11.84C132.285 12.4933 132.091 13.0667 131.705 13.56C131.318 14.0533 130.785 14.44 130.105 14.72C129.425 14.9867 128.631 15.12 127.725 15.12C126.751 15.12 125.858 14.96 125.045 14.64C124.231 14.3067 123.531 13.8533 122.945 13.28Z" fill="#2E4F21"/>
</symbol>
</svg>
